<svg width="701" height="428" viewBox="0 0 701 428" fill="none" xmlns="http://www.w3.org/2000/svg">
<g clip-path="url(#clip0)">
<path d="M0 373.216H136.914V428H6.84611C3.06511 428 0 424.935 0 421.154V373.216Z" fill="black" fill-opacity="0.1"/>
<path fill-rule="evenodd" clip-rule="evenodd" d="M26.0106 413.958C33.5726 413.958 39.7028 407.828 39.7028 400.266C39.7028 392.704 33.5726 386.574 26.0106 386.574C18.4486 386.574 12.3184 392.704 12.3184 400.266C12.3184 407.828 18.4486 413.958 26.0106 413.958Z" fill="white" fill-opacity="0.1" stroke="white" stroke-opacity="0.3" stroke-width="0.821532"/>
<path d="M26.0063 393.42L19.1602 400.266L26.0063 407.112L32.8524 400.266L26.0063 393.42Z" fill="#00CFFD" stroke="black" stroke-width="0.821532" stroke-miterlimit="10" stroke-linecap="round" stroke-linejoin="round"/>
<path fill-rule="evenodd" clip-rule="evenodd" d="M24.2931 400.668C24.1326 400.508 23.8726 400.508 23.7121 400.668C23.5517 400.828 23.5517 401.088 23.7121 401.249L25.7868 403.324C25.8639 403.401 25.9684 403.444 26.0773 403.444C26.1862 403.444 26.2907 403.401 26.3678 403.324L28.4425 401.249C28.6029 401.088 28.6029 400.828 28.4425 400.668C28.282 400.508 28.022 400.508 27.8615 400.668L26.49 402.039V397.154C26.49 396.927 26.3061 396.743 26.0792 396.743C25.8523 396.743 25.6684 396.927 25.6684 397.154V402.043L24.2931 400.668Z" fill="black"/>
<path d="M89.7724 389.709H48.7374C47.5287 389.709 46.5488 390.689 46.5488 391.897V391.898C46.5488 393.106 47.5287 394.086 48.7374 394.086H89.7724C90.9811 394.086 91.9609 393.106 91.9609 391.898V391.897C91.9609 390.689 90.9811 389.709 89.7724 389.709Z" fill="white" fill-opacity="0.6"/>
<path d="M77.1883 399.649H47.6431C47.0388 399.649 46.5488 400.139 46.5488 400.743C46.5488 401.348 47.0388 401.837 47.6431 401.837H77.1883C77.7926 401.837 78.2825 401.348 78.2825 400.743C78.2825 400.139 77.7926 399.649 77.1883 399.649Z" fill="white" fill-opacity="0.3"/>
<path d="M120.144 407.4H48.2604C47.3151 407.4 46.5488 408.166 46.5488 409.111C46.5488 410.057 47.3151 410.823 48.2604 410.823H120.144C121.09 410.823 121.856 410.057 121.856 409.111C121.856 408.166 121.09 407.4 120.144 407.4Z" fill="black" fill-opacity="0.2"/>
<path d="M95.4994 408.085H48.2613C47.6941 408.085 47.2344 408.545 47.2344 409.112C47.2344 409.679 47.6941 410.139 48.2613 410.139H95.4994C96.0665 410.139 96.5263 409.679 96.5263 409.112C96.5263 408.545 96.0665 408.085 95.4994 408.085Z" fill="#00CFFD" stroke="black" stroke-opacity="0.05" stroke-width="0.247119"/>
<path d="M126.649 39.9927H10.2648C8.37435 39.9927 6.8418 41.5252 6.8418 43.4157V55.7387C6.8418 57.6292 8.37435 59.1618 10.2648 59.1618H126.649C128.539 59.1618 130.072 57.6292 130.072 55.7387V43.4157C130.072 41.5252 128.539 39.9927 126.649 39.9927Z" fill="black" fill-opacity="0.2"/>
<path d="M16.7384 52.553C17.4294 52.553 18.0769 52.3444 18.6158 51.9881L20.5192 53.8958C20.6452 54.0175 20.806 54.0784 20.9798 54.0784C21.3405 54.0784 21.6056 53.7959 21.6056 53.4395C21.6056 53.2744 21.5491 53.1136 21.4274 52.9919L19.537 51.0929C19.9282 50.541 20.1585 49.8631 20.1585 49.133C20.1585 47.2513 18.6201 45.7129 16.7384 45.7129C14.8611 45.7129 13.3184 47.2513 13.3184 49.133C13.3184 51.0147 14.8568 52.553 16.7384 52.553ZM16.7384 51.6404C15.3609 51.6404 14.231 50.5106 14.231 49.133C14.231 47.7598 15.3609 46.6255 16.7384 46.6255C18.116 46.6255 19.2459 47.7598 19.2459 49.133C19.2459 50.5106 18.116 51.6404 16.7384 51.6404Z" fill="white"/>
<path d="M37.4812 67.377H7.93607C7.33172 67.377 6.8418 67.8669 6.8418 68.4712C6.8418 69.0756 7.33172 69.5655 7.93607 69.5655H37.4812C38.0856 69.5655 38.5755 69.0756 38.5755 68.4712C38.5755 67.8669 38.0856 67.377 37.4812 67.377Z" fill="white" fill-opacity="0.3"/>
<path d="M126.649 75.0425H10.2648C8.37435 75.0425 6.8418 76.575 6.8418 78.4655V90.7885C6.8418 92.679 8.37435 94.2116 10.2648 94.2116H126.649C128.539 94.2116 130.072 92.679 130.072 90.7885V78.4655C130.072 76.575 128.539 75.0425 126.649 75.0425Z" fill="white" fill-opacity="0.1"/>
<path d="M21.9047 90.7883H15.7432C15.3667 90.7883 15.0586 90.4802 15.0586 90.1037V79.1499C15.0586 78.7734 15.3667 78.4653 15.7432 78.4653H21.9047V90.7883Z" stroke="white" stroke-opacity="0.6" stroke-width="0.821532" stroke-miterlimit="10" stroke-linecap="round" stroke-linejoin="round"/>
<path d="M28.0658 90.7888H21.9043V78.4658H28.0658C28.4423 78.4658 28.7504 78.7739 28.7504 79.1504V90.1042C28.7504 90.4807 28.4423 90.7888 28.0658 90.7888Z" stroke="white" stroke-opacity="0.6" stroke-width="0.821532" stroke-miterlimit="10" stroke-linecap="round" stroke-linejoin="round"/>
<path d="M16.4277 84.6274H20.5354" stroke="white" stroke-opacity="0.6" stroke-width="0.821532" stroke-miterlimit="10"/>
<path d="M16.4277 81.8892H20.5354" stroke="white" stroke-opacity="0.6" stroke-width="0.821532" stroke-miterlimit="10"/>
<path d="M16.4277 87.3657H20.5354" stroke="white" stroke-opacity="0.6" stroke-width="0.821532" stroke-miterlimit="10"/>
<path d="M23.2734 84.6274H27.3811" stroke="white" stroke-opacity="0.6" stroke-width="0.821532" stroke-miterlimit="10"/>
<path d="M23.2734 81.8892H27.3811" stroke="white" stroke-opacity="0.6" stroke-width="0.821532" stroke-miterlimit="10"/>
<path d="M67.6043 83.5327H38.0591C37.4548 83.5327 36.9648 84.0226 36.9648 84.627C36.9648 85.2313 37.4548 85.7212 38.0591 85.7212H67.6043C68.2086 85.7212 68.6985 85.2313 68.6985 84.627C68.6985 84.0226 68.2086 83.5327 67.6043 83.5327Z" fill="white" fill-opacity="0.3"/>
<path d="M21.2221 102.425C19.6201 102.425 17.6005 103.602 17.6347 106.642L15.088 109.942C15.0127 110.037 15.1017 110.161 15.2386 110.161L16.9364 111.003C17.0254 111.633 17.354 113.467 17.532 114.385C17.5937 114.672 20.4006 114.453 20.4006 114.453L21.2221 116.117" stroke="white" stroke-opacity="0.6" stroke-width="0.821532" stroke-miterlimit="10" stroke-linecap="round" stroke-linejoin="round"/>
<path fill-rule="evenodd" clip-rule="evenodd" d="M24.5402 102.563C24.6166 102.35 24.5054 102.114 24.2918 102.038C24.0782 101.962 23.8431 102.073 23.7667 102.286L23.0684 104.238C22.9919 104.451 23.1031 104.686 23.3167 104.763C23.5303 104.839 23.7654 104.728 23.8419 104.514L24.5402 102.563ZM28.7834 104.63C28.965 104.494 29.002 104.237 28.8661 104.055C28.7301 103.874 28.4727 103.837 28.2911 103.973L25.9497 105.725C25.7681 105.861 25.7311 106.119 25.867 106.3C26.003 106.482 26.2604 106.519 26.442 106.383L28.7834 104.63ZM26.104 109.151C26.1206 108.925 26.3175 108.755 26.5437 108.772L28.7824 108.936C29.0087 108.953 29.1786 109.149 29.162 109.376C29.1454 109.602 28.9485 109.772 28.7223 109.755L26.4836 109.591C26.2574 109.574 26.0874 109.378 26.104 109.151ZM21.7153 112.907C21.4885 112.907 21.3046 113.09 21.3046 113.317C21.3046 113.544 21.4885 113.728 21.7153 113.728H23.5159C23.7427 113.728 23.9266 113.544 23.9266 113.317C23.9266 113.09 23.7427 112.907 23.5159 112.907H21.7153ZM21.3046 111.551C21.3046 111.324 21.4885 111.14 21.7153 111.14H21.8237C20.9205 110.382 19.6839 108.718 20.6944 107.388C21.6802 106.094 23.5492 106.094 24.5351 107.388C25.5445 108.717 24.3163 110.383 23.411 111.14H23.5159C23.7427 111.14 23.9266 111.324 23.9266 111.551C23.9266 111.777 23.7427 111.961 23.5159 111.961H21.7153C21.4885 111.961 21.3046 111.777 21.3046 111.551ZM23.0314 111.14V109.389C23.2207 109.252 23.3439 109.029 23.3439 108.778C23.3439 108.362 23.0067 108.025 22.5908 108.025C22.1749 108.025 21.8378 108.362 21.8378 108.778C21.8378 109.055 21.9872 109.297 22.2099 109.428V111.14H23.0314ZM22.5761 108.711C22.582 108.711 22.5879 108.71 22.5938 108.71H22.5908C22.5858 108.71 22.5809 108.71 22.5761 108.711Z" fill="white" fill-opacity="0.6"/>
<path d="M81.4687 107.882H38.3556C37.5875 107.882 36.9648 108.504 36.9648 109.273C36.9648 110.041 37.5875 110.663 38.3556 110.663H81.4687C82.2368 110.663 82.8594 110.041 82.8594 109.273C82.8594 108.504 82.2368 107.882 81.4687 107.882Z" fill="white" fill-opacity="0.3"/>
<path d="M21.9066 127.074L15.0605 133.92L21.9066 140.766L28.7527 133.92L21.9066 127.074Z" stroke="white" stroke-opacity="0.6" stroke-width="0.821532" stroke-miterlimit="10" stroke-linecap="round" stroke-linejoin="round"/>
<path fill-rule="evenodd" clip-rule="evenodd" d="M20.1934 134.324C20.033 134.163 19.7729 134.163 19.6125 134.324C19.4521 134.484 19.4521 134.744 19.6125 134.905L21.6872 136.979C21.7643 137.056 21.8687 137.1 21.9777 137.1C22.0866 137.1 22.1911 137.056 22.2681 136.979L24.3428 134.905C24.5033 134.744 24.5033 134.484 24.3428 134.324C24.1824 134.163 23.9223 134.163 23.7619 134.324L22.3904 135.695V130.81C22.3904 130.583 22.2065 130.399 21.9796 130.399C21.7527 130.399 21.5688 130.583 21.5688 130.81V135.699L20.1934 134.324Z" fill="white" fill-opacity="0.6"/>
<path d="M81.4687 132.528H38.3556C37.5875 132.528 36.9648 133.15 36.9648 133.919C36.9648 134.687 37.5875 135.309 38.3556 135.309H81.4687C82.2368 135.309 82.8594 134.687 82.8594 133.919C82.8594 133.15 82.2368 132.528 81.4687 132.528Z" fill="white" fill-opacity="0.3"/>
<path d="M29.7773 183.211C29.7773 187.559 26.2523 191.084 21.9042 191.084C17.5561 191.084 14.0312 187.559 14.0312 183.211C14.0312 178.863 17.5561 175.338 21.9042 175.338C26.2523 175.338 29.7773 178.863 29.7773 183.211Z" stroke="white" stroke-opacity="0.2" stroke-width="0.68461"/>
<path d="M67.6043 182.117H38.0591C37.4548 182.117 36.9648 182.607 36.9648 183.211C36.9648 183.815 37.4548 184.305 38.0591 184.305H67.6043C68.2086 184.305 68.6985 183.815 68.6985 183.211C68.6985 182.607 68.2086 182.117 67.6043 182.117Z" fill="white" fill-opacity="0.3"/>
<path d="M29.7773 206.488C29.7773 210.836 26.2523 214.361 21.9042 214.361C17.5561 214.361 14.0312 210.836 14.0312 206.488C14.0312 202.14 17.5561 198.615 21.9042 198.615C26.2523 198.615 29.7773 202.14 29.7773 206.488Z" stroke="white" stroke-opacity="0.2" stroke-width="0.68461"/>
<path d="M73.1242 205.097H38.3556C37.5875 205.097 36.9648 205.719 36.9648 206.487C36.9648 207.256 37.5875 207.878 38.3556 207.878H73.1242C73.8923 207.878 74.5149 207.256 74.5149 206.487C74.5149 205.719 73.8923 205.097 73.1242 205.097Z" fill="white" fill-opacity="0.3"/>
<path d="M29.7773 229.764C29.7773 234.113 26.2523 237.637 21.9042 237.637C17.5561 237.637 14.0312 234.113 14.0312 229.764C14.0312 225.416 17.5561 221.891 21.9042 221.891C26.2523 221.891 29.7773 225.416 29.7773 229.764Z" stroke="white" stroke-opacity="0.2" stroke-width="0.68461"/>
<path d="M77.2965 228.374H38.3556C37.5875 228.374 36.9648 228.996 36.9648 229.764C36.9648 230.532 37.5875 231.155 38.3556 231.155H77.2965C78.0646 231.155 78.6872 230.532 78.6872 229.764C78.6872 228.996 78.0646 228.374 77.2965 228.374Z" fill="white" fill-opacity="0.3"/>
<path d="M29.7773 283.164C29.7773 287.512 26.2523 291.037 21.9042 291.037C17.5561 291.037 14.0312 287.512 14.0312 283.164C14.0312 278.816 17.5561 275.291 21.9042 275.291C26.2523 275.291 29.7773 278.816 29.7773 283.164Z" stroke="white" stroke-opacity="0.2" stroke-width="0.68461"/>
<path d="M59.2168 281.772H38.3556C37.5875 281.772 36.9648 282.395 36.9648 283.163C36.9648 283.931 37.5875 284.554 38.3556 284.554H59.2168C59.9849 284.554 60.6075 283.931 60.6075 283.163C60.6075 282.395 59.9849 281.772 59.2168 281.772Z" fill="white" fill-opacity="0.3"/>
<path d="M29.7773 306.441C29.7773 310.789 26.2523 314.314 21.9042 314.314C17.5561 314.314 14.0312 310.789 14.0312 306.441C14.0312 302.093 17.5561 298.568 21.9042 298.568C26.2523 298.568 29.7773 302.093 29.7773 306.441Z" stroke="white" stroke-opacity="0.2" stroke-width="0.68461"/>
<path d="M67.6043 305.347H38.0591C37.4548 305.347 36.9648 305.837 36.9648 306.441C36.9648 307.045 37.4548 307.535 38.0591 307.535H67.6043C68.2086 307.535 68.6985 307.045 68.6985 306.441C68.6985 305.837 68.2086 305.347 67.6043 305.347Z" fill="white" fill-opacity="0.3"/>
<path d="M29.7773 329.718C29.7773 334.066 26.2523 337.591 21.9042 337.591C17.5561 337.591 14.0312 334.066 14.0312 329.718C14.0312 325.369 17.5561 321.845 21.9042 321.845C26.2523 321.845 29.7773 325.369 29.7773 329.718Z" stroke="white" stroke-opacity="0.2" stroke-width="0.68461"/>
<path d="M87.0317 328.327H38.3556C37.5875 328.327 36.9648 328.949 36.9648 329.717C36.9648 330.485 37.5875 331.108 38.3556 331.108H87.0317C87.7998 331.108 88.4224 330.485 88.4224 329.717C88.4224 328.949 87.7998 328.327 87.0317 328.327Z" fill="white" fill-opacity="0.3"/>
<path d="M21.9067 17.8049C21.9067 15.5363 20.0677 13.6973 17.7991 13.6973C15.5305 13.6973 13.6914 15.5363 13.6914 17.8049C13.6914 20.0735 15.5305 21.9126 17.7991 21.9126C20.0677 21.9126 21.9067 20.0735 21.9067 17.8049Z" fill="#EB6A5D"/>
<path d="M36.2837 17.8049C36.2837 15.5363 34.4446 13.6973 32.176 13.6973C29.9074 13.6973 28.0684 15.5363 28.0684 17.8049C28.0684 20.0735 29.9074 21.9126 32.176 21.9126C34.4446 21.9126 36.2837 20.0735 36.2837 17.8049Z" fill="#F3BE4F"/>
<path d="M50.6606 17.8049C50.6606 15.5363 48.8216 13.6973 46.553 13.6973C44.2844 13.6973 42.4453 15.5363 42.4453 17.8049C42.4453 20.0735 44.2844 21.9126 46.553 21.9126C48.8216 21.9126 50.6606 20.0735 50.6606 17.8049Z" fill="#64C354"/>
<path d="M136.912 0H694.153C697.934 0 700.999 3.0651 700.999 6.8461V421.154C700.999 424.935 697.934 428 694.153 428H136.912V0Z" fill="#1A164A" fill-opacity="0.63"/>
<mask id="mask0" style="mask-type:alpha" maskUnits="userSpaceOnUse" x="140" y="-3" width="565" height="428">
<path d="M140 -3H697.241C701.022 -3 704.087 0.0651 704.087 3.8461V418.154C704.087 421.935 701.022 425 697.241 425H140V-3Z" fill="#1A164A"/>
</mask>
<g mask="url(#mask0)">
<path fill-rule="evenodd" clip-rule="evenodd" d="M650.501 156.592C676.725 92.4358 720.087 -17.9166 607.934 -82.1143C495.781 -146.312 443.607 -105.205 394.597 -86.2721C345.588 -67.3396 224.353 -55.012 242.588 21.5162C260.823 98.0444 264.873 231.876 351.987 231.878C439.101 231.881 427.419 195.609 483.367 189.188C539.315 182.768 624.277 220.748 650.501 156.592Z" fill="url(#paint0_linear)"/>
<path fill-rule="evenodd" clip-rule="evenodd" d="M650.501 156.592C676.725 92.4358 720.087 -17.9166 607.934 -82.1143C495.781 -146.312 443.607 -105.205 394.597 -86.2721C345.588 -67.3396 224.353 -55.012 242.588 21.5162C260.823 98.0444 264.873 231.876 351.987 231.878C439.101 231.881 427.419 195.609 483.367 189.188C539.315 182.768 624.277 220.748 650.501 156.592Z" fill="#14BEFD"/>
<g filter="url(#filter0_d)">
<path fill-rule="evenodd" clip-rule="evenodd" d="M261.336 -54.8167C236.734 17.3022 196.333 141.238 323.599 204.383C450.865 267.529 505.448 219.015 558.001 195.043C610.555 171.07 742.804 149.64 717.808 66.8402C692.811 -15.9593 679.649 -162.572 584.044 -156.897C488.438 -151.222 503.622 -112.176 442.638 -101.483C381.654 -90.7911 285.937 -126.936 261.336 -54.8167Z" fill="url(#paint1_linear)"/>
</g>
<g opacity="0.5" filter="url(#filter1_d)">
<path opacity="0.5" fill-rule="evenodd" clip-rule="evenodd" d="M270.7 -66.4958C246.611 4.1214 207.05 125.476 331.667 187.307C456.283 249.139 509.729 201.634 561.188 178.161C612.648 154.688 742.143 133.703 717.667 52.6279C693.191 -28.4475 680.303 -172.007 586.688 -166.451C493.073 -160.894 507.941 -122.661 448.227 -112.191C388.513 -101.721 294.789 -137.113 270.7 -66.4958Z" stroke="url(#paint2_linear)" stroke-width="6.78117" stroke-linecap="round" stroke-dasharray="67.81 33.91"/>
</g>
<g opacity="0.2" filter="url(#filter2_d)">
<path opacity="0.2" fill-rule="evenodd" clip-rule="evenodd" d="M299.991 -54.1829C278.896 8.38199 244.294 115.913 356.691 171.809C469.088 227.706 516.727 185.903 562.766 165.439C608.805 144.976 724.951 127.321 702.347 55.0913C679.743 -17.1384 667.07 -144.802 583.032 -140.581C498.994 -136.361 512.64 -102.273 459.088 -93.4274C405.536 -84.5813 321.086 -116.748 299.991 -54.1829Z" stroke="url(#paint3_linear)" stroke-width="3.39059" stroke-linecap="round" stroke-dasharray="33.91 16.95"/>
</g>
<g filter="url(#filter3_d)">
<path fill-rule="evenodd" clip-rule="evenodd" d="M266.531 -92.1864C241.641 -19.2232 200.767 106.163 329.523 170.048C458.279 233.933 513.501 184.851 566.67 160.598C619.839 136.345 753.636 114.664 728.347 30.8947C703.058 -52.8741 689.742 -201.203 593.017 -195.462C496.292 -189.721 511.653 -150.217 449.956 -139.4C388.258 -128.582 291.42 -165.15 266.531 -92.1864Z" stroke="url(#paint4_linear)" stroke-width="10.1718" stroke-linecap="round" stroke-dasharray="67.81 33.91"/>
</g>
<path fill-rule="evenodd" clip-rule="evenodd" d="M556.585 27.1691C561.878 27.1691 566.169 22.878 566.169 17.5846C566.169 12.2912 561.878 8 556.585 8C551.291 8 547 12.2912 547 17.5846C547 22.878 551.291 27.1691 556.585 27.1691Z" fill="white" fill-opacity="0.1" stroke="white" stroke-opacity="0.3" stroke-width="0.821532"/>
<path d="M563.433 16.5849C563.433 17.2832 563.33 17.961 563.132 18.5977C562.591 17.4133 561.4 16.5849 560.01 16.5849C558.12 16.5849 556.587 18.1184 556.587 20.008C556.587 21.3977 557.415 22.5889 558.6 23.1298C557.963 23.3283 557.285 23.431 556.587 23.431C552.808 23.431 549.741 20.364 549.741 16.5849C549.741 12.8059 552.808 9.73875 556.587 9.73875C560.366 9.73875 563.433 12.8059 563.433 16.5849Z" fill="#00CFFD" stroke="black" stroke-width="0.821532" stroke-miterlimit="10" stroke-linecap="round" stroke-linejoin="round"/>
<path d="M558.593 24.122C557.409 23.5811 556.587 22.3899 556.587 21.007C556.587 20.2539 556.827 19.5625 557.244 18.9942C557.025 18.9669 556.806 18.9532 556.587 18.9532C554.342 18.9532 552.418 20.3019 551.569 22.2325C552.822 23.5811 554.602 24.43 556.587 24.43C557.286 24.43 557.956 24.3274 558.593 24.122Z" fill="white" stroke="black" stroke-width="0.821532" stroke-miterlimit="10" stroke-linecap="round"/>
<path d="M557.353 18.8443H557.36C557.737 18.3788 558.243 18.0092 558.818 17.7969C559.14 17.3451 559.325 16.8043 559.325 16.2155C559.325 14.7025 558.099 13.4771 556.586 13.4771C555.073 13.4771 553.848 14.7025 553.848 16.2155C553.848 17.7285 555.073 18.9539 556.586 18.9539C556.853 18.9539 557.114 18.9128 557.36 18.8443" fill="white"/>
<path d="M557.353 18.8443H557.36C557.737 18.3788 558.243 18.0092 558.818 17.7969C559.14 17.3451 559.325 16.8043 559.325 16.2155C559.325 14.7025 558.099 13.4771 556.586 13.4771C555.073 13.4771 553.848 14.7025 553.848 16.2155C553.848 17.7285 555.073 18.9539 556.586 18.9539C556.853 18.9539 557.114 18.9128 557.36 18.8443" stroke="black" stroke-width="0.821532" stroke-miterlimit="10" stroke-linecap="round" stroke-linejoin="round"/>
<path d="M560.009 24.4315C561.9 24.4315 563.432 22.8989 563.432 21.0084C563.432 19.1179 561.9 17.5854 560.009 17.5854C558.119 17.5854 556.586 19.1179 556.586 21.0084C556.586 22.8989 558.119 24.4315 560.009 24.4315Z" fill="black" stroke="black" stroke-width="0.821532" stroke-miterlimit="10" stroke-linecap="round" stroke-linejoin="round"/>
<path d="M558.362 20.5623L559.595 21.7946L561.649 19.7408" stroke="#00CFFD" stroke-width="0.821532" stroke-miterlimit="10"/>
<path d="M650.002 19.8959C650.154 19.8915 650.294 19.835 650.407 19.7133L653.709 16.3324C653.805 16.2368 653.857 16.1151 653.857 15.9717C653.857 15.6849 653.631 15.4546 653.344 15.4546C653.205 15.4546 653.07 15.5111 652.97 15.611L650.007 18.6573L647.034 15.611C646.934 15.5154 646.804 15.4546 646.661 15.4546C646.374 15.4546 646.148 15.6849 646.148 15.9717C646.148 16.1151 646.2 16.2368 646.296 16.3324L649.603 19.7133C649.72 19.835 649.85 19.8959 650.002 19.8959Z" fill="white"/>
<path d="M292.949 62.1216H159.642C158.433 62.1216 157.453 63.1014 157.453 64.3101V68.2775C157.453 69.4862 158.433 70.4661 159.642 70.4661H292.949C294.157 70.4661 295.137 69.4862 295.137 68.2775V64.3101C295.137 63.1014 294.157 62.1216 292.949 62.1216Z" fill="white" fill-opacity="0.6"/>
<path d="M219.239 81.5918H159.642C158.433 81.5918 157.453 82.5716 157.453 83.7803V87.7477C157.453 88.9564 158.433 89.9363 159.642 89.9363H219.239C220.448 89.9363 221.427 88.9564 221.427 87.7477V83.7803C221.427 82.5716 220.448 81.5918 219.239 81.5918Z" fill="white" fill-opacity="0.6"/>
<path d="M285.401 101.062H158.844C158.076 101.062 157.453 101.685 157.453 102.453C157.453 103.221 158.076 103.844 158.844 103.844H285.401C286.169 103.844 286.792 103.221 286.792 102.453C286.792 101.685 286.169 101.062 285.401 101.062Z" fill="white" fill-opacity="0.3"/>
<path d="M252.024 114.97H158.844C158.076 114.97 157.453 115.593 157.453 116.361C157.453 117.129 158.076 117.752 158.844 117.752H252.024C252.792 117.752 253.415 117.129 253.415 116.361C253.415 115.593 252.792 114.97 252.024 114.97Z" fill="white" fill-opacity="0.3"/>
<path d="M268.712 128.877H158.844C158.076 128.877 157.453 129.5 157.453 130.268C157.453 131.036 158.076 131.658 158.844 131.658H268.712C269.48 131.658 270.103 131.036 270.103 130.268C270.103 129.5 269.48 128.877 268.712 128.877Z" fill="white" fill-opacity="0.3"/>
<path d="M606.628 48.6211H565.593C564.384 48.6211 563.404 49.6009 563.404 50.8096C563.404 52.0183 564.384 52.9982 565.593 52.9982H606.628C607.836 52.9982 608.816 52.0183 608.816 50.8096C608.816 49.6009 607.836 48.6211 606.628 48.6211Z" fill="white" fill-opacity="0.6"/>
<path d="M657.975 58.561H564.795C564.027 58.561 563.404 59.1837 563.404 59.9518C563.404 60.7199 564.027 61.3425 564.795 61.3425H657.975C658.743 61.3425 659.366 60.7199 659.366 59.9518C659.366 59.1837 658.743 58.561 657.975 58.561Z" fill="white" fill-opacity="0.3"/>
<path d="M680.468 66.9058H570.246C566.465 66.9058 563.4 69.9709 563.4 73.7519V109.352C563.4 113.133 566.465 116.198 570.246 116.198H680.468C684.249 116.198 687.314 113.133 687.314 109.352V73.7519C687.314 69.9709 684.249 66.9058 680.468 66.9058Z" fill="#5B0000" fill-opacity="0.22"/>
<path fill-rule="evenodd" clip-rule="evenodd" d="M585.309 105.244C592.871 105.244 599.001 99.1136 599.001 91.5516C599.001 83.9896 592.871 77.8594 585.309 77.8594C577.747 77.8594 571.617 83.9896 571.617 91.5516C571.617 99.1136 577.747 105.244 585.309 105.244Z" fill="white" fill-opacity="0.1" stroke="white" stroke-opacity="0.3" stroke-width="0.821532"/>
<path d="M588.047 91.5515L585.309 86.7593L582.57 91.5515L579.146 86.7593L579.831 95.6592H590.786L591.469 86.7593L588.047 91.5515Z" fill="#00CFFD" stroke="black" stroke-width="0.821532" stroke-miterlimit="10" stroke-linecap="round" stroke-linejoin="round"/>
<path fill-rule="evenodd" clip-rule="evenodd" d="M591.813 97.713H578.805C578.613 97.713 578.463 97.5624 578.463 97.3707V96.0015C578.463 95.8098 578.613 95.6592 578.805 95.6592H591.813C592.004 95.6592 592.155 95.8098 592.155 96.0015V97.3707C592.155 97.5624 592.004 97.713 591.813 97.713Z" fill="white" stroke="black" stroke-width="0.821532" stroke-miterlimit="10" stroke-linecap="round" stroke-linejoin="round"/>
<path d="M579.148 86.7598C579.526 86.7598 579.832 86.4533 579.832 86.0752C579.832 85.6971 579.526 85.3906 579.148 85.3906C578.77 85.3906 578.463 85.6971 578.463 86.0752C578.463 86.4533 578.77 86.7598 579.148 86.7598Z" stroke="black" stroke-width="0.821532" stroke-miterlimit="10" stroke-linecap="round" stroke-linejoin="round"/>
<path d="M591.471 86.7594C591.849 86.7594 592.156 86.4528 592.156 86.0747C592.156 85.6966 591.849 85.3901 591.471 85.3901C591.093 85.3901 590.787 85.6966 590.787 86.0747C590.787 86.4528 591.093 86.7594 591.471 86.7594Z" stroke="black" stroke-width="0.821532" stroke-miterlimit="10" stroke-linecap="round" stroke-linejoin="round"/>
<path d="M585.312 86.7594C585.69 86.7594 585.997 86.4528 585.997 86.0747C585.997 85.6966 585.69 85.3901 585.312 85.3901C584.934 85.3901 584.627 85.6966 584.627 86.0747C584.627 86.4528 584.934 86.7594 585.312 86.7594Z" stroke="black" stroke-width="0.821532" stroke-miterlimit="10" stroke-linecap="round" stroke-linejoin="round"/>
<path d="M650.35 94.6108H607.236C606.468 94.6108 605.846 95.2335 605.846 96.0016C605.846 96.7697 606.468 97.3923 607.236 97.3923H650.35C651.118 97.3923 651.74 96.7697 651.74 96.0016C651.74 95.2335 651.118 94.6108 650.35 94.6108Z" fill="white" fill-opacity="0.3"/>
<path d="M672.595 100.131H607.557C606.612 100.131 605.846 100.897 605.846 101.842C605.846 102.788 606.612 103.554 607.557 103.554H672.595C673.54 103.554 674.307 102.788 674.307 101.842C674.307 100.897 673.54 100.131 672.595 100.131Z" fill="black" fill-opacity="0.2"/>
<path d="M672.325 101H608.675C607.75 101 607 101.448 607 102C607 102.552 607.75 103 608.675 103H672.325C673.25 103 674 102.552 674 102C674 101.448 673.25 101 672.325 101Z" fill="#00CFFD" stroke="black" stroke-opacity="0.05" stroke-width="0.247119"/>
<path d="M700.999 34.2417H136.912V34.584H700.999V34.2417Z" fill="white" fill-opacity="0.2"/>
<path d="M168.081 8H146.919C145.307 8 144 9.21523 144 10.7142V24.2858C144 25.7848 145.307 27 146.919 27H168.081C169.693 27 171 25.7848 171 24.2858V10.7142C171 9.21523 169.693 8 168.081 8Z" fill="black" fill-opacity="0.2"/>
<path d="M153.527 22H161.469C162.476 22 163 21.4607 163 20.4302V14.5698C163 13.5394 162.476 13 161.469 13H153.527C152.524 13 152 13.5345 152 14.5698V20.4302C152 21.4607 152.524 22 153.527 22ZM153.588 21.0417C153.161 21.0417 152.924 20.8106 152.924 20.3435V14.6566C152.924 14.1894 153.161 13.9583 153.588 13.9583H155.704V21.0417H153.588ZM161.408 13.9583C161.835 13.9583 162.072 14.1894 162.072 14.6566V20.3435C162.072 20.8106 161.835 21.0417 161.408 21.0417H156.582V13.9583H161.408ZM154.795 15.7207C154.961 15.7207 155.1 15.5714 155.1 15.4078C155.1 15.244 154.961 15.0996 154.795 15.0996H153.843C153.676 15.0996 153.537 15.244 153.537 15.4078C153.537 15.5714 153.676 15.7207 153.843 15.7207H154.795ZM154.795 17.016C154.961 17.016 155.1 16.8717 155.1 16.7031C155.1 16.5393 154.961 16.3948 154.795 16.3948H153.843C153.676 16.3948 153.537 16.5393 153.537 16.7031C153.537 16.8717 153.676 17.016 153.843 17.016H154.795ZM154.795 18.3066C154.961 18.3066 155.1 18.1669 155.1 17.9984C155.1 17.8347 154.961 17.6951 154.795 17.6951H153.843C153.676 17.6951 153.537 17.8347 153.537 17.9984C153.537 18.1669 153.676 18.3066 153.843 18.3066H154.795Z" fill="white"/>
<path d="M690.049 7.53319H672.25C670.738 7.53319 669.512 8.75924 669.512 10.2716V23.9639C669.512 25.4763 670.738 26.7023 672.25 26.7023H690.049C691.561 26.7023 692.787 25.4763 692.787 23.9639V10.2716C692.787 8.75924 691.561 7.53319 690.049 7.53319Z" fill="black" fill-opacity="0.2"/>
<path d="M681.145 21.9967C683.609 21.9967 685.643 19.9629 685.643 17.5033C685.643 15.0436 683.605 13.0098 681.141 13.0098C678.681 13.0098 676.652 15.0436 676.652 17.5033C676.652 19.9629 678.686 21.9967 681.145 21.9967ZM681.145 21.1015C679.151 21.1015 677.556 19.4979 677.556 17.5033C677.556 15.5086 679.151 13.9094 681.141 13.9094C683.136 13.9094 684.739 15.5086 684.744 17.5033C684.748 19.4979 683.14 21.1015 681.145 21.1015ZM681.05 18.368C681.289 18.368 681.441 18.229 681.454 18.0508C681.454 18.0334 681.454 18.016 681.458 17.9987C681.471 17.777 681.623 17.6249 681.906 17.4424C682.336 17.1643 682.61 16.9122 682.61 16.4125C682.61 15.6868 681.958 15.2739 681.184 15.2739C680.441 15.2739 679.933 15.6129 679.798 16.017C679.772 16.0953 679.755 16.1691 679.755 16.2474C679.755 16.4559 679.92 16.5907 680.12 16.5907C680.376 16.5907 680.433 16.4603 680.567 16.3125C680.706 16.0953 680.889 15.9692 681.145 15.9692C681.489 15.9692 681.715 16.1648 681.715 16.4559C681.715 16.721 681.532 16.8644 681.163 17.1165C680.854 17.3338 680.628 17.5554 680.628 17.9465V17.9943C680.628 18.242 680.78 18.368 681.05 18.368ZM681.041 19.7022C681.319 19.7022 681.55 19.5023 681.55 19.2241C681.55 18.946 681.324 18.7461 681.041 18.7461C680.759 18.7461 680.528 18.9504 680.528 19.2241C680.528 19.4979 680.759 19.7022 681.041 19.7022Z" fill="white"/>
</g>
<path d="M572.851 13.1797H574.462V18.5938C574.462 19.0915 574.351 19.5319 574.129 19.915C573.911 20.2946 573.601 20.5882 573.2 20.7959C572.799 21.0036 572.346 21.1074 571.841 21.1074C571.014 21.1074 570.37 20.8979 569.908 20.479C569.446 20.0565 569.215 19.4603 569.215 18.6904H570.837C570.837 19.0736 570.917 19.3564 571.079 19.5391C571.24 19.7217 571.494 19.813 571.841 19.813C572.149 19.813 572.395 19.7074 572.577 19.4961C572.76 19.2848 572.851 18.984 572.851 18.5938V13.1797ZM578.416 21.1074C577.563 21.1074 576.869 20.846 576.332 20.3232C575.798 19.8005 575.531 19.104 575.531 18.2339V18.0835C575.531 17.4998 575.644 16.9788 575.87 16.5205C576.095 16.0586 576.414 15.7041 576.826 15.457C577.241 15.2064 577.714 15.0811 578.244 15.0811C579.039 15.0811 579.663 15.3317 580.118 15.833C580.576 16.3343 580.806 17.0451 580.806 17.9653V18.5991H577.105C577.155 18.9787 577.306 19.283 577.556 19.5122C577.81 19.7414 578.131 19.856 578.518 19.856C579.116 19.856 579.583 19.6393 579.919 19.2061L580.682 20.0601C580.449 20.3895 580.134 20.6473 579.737 20.8335C579.339 21.0161 578.899 21.1074 578.416 21.1074ZM578.238 16.3379C577.93 16.3379 577.68 16.4417 577.486 16.6494C577.297 16.8571 577.175 17.1543 577.121 17.541H579.28V17.4175C579.273 17.0737 579.18 16.8088 579.001 16.6226C578.822 16.4328 578.568 16.3379 578.238 16.3379ZM584.839 19.394C584.839 19.2043 584.744 19.0557 584.555 18.9482C584.368 18.8372 584.068 18.7388 583.652 18.6528C582.27 18.3628 581.579 17.7756 581.579 16.8911C581.579 16.3755 581.792 15.9458 582.218 15.6021C582.648 15.2547 583.208 15.0811 583.899 15.0811C584.637 15.0811 585.226 15.2547 585.667 15.6021C586.111 15.9494 586.333 16.4006 586.333 16.9556H584.78C584.78 16.7336 584.709 16.5509 584.565 16.4077C584.422 16.2609 584.198 16.1875 583.894 16.1875C583.633 16.1875 583.43 16.2466 583.287 16.3647C583.144 16.4829 583.072 16.6333 583.072 16.8159C583.072 16.9878 583.153 17.1274 583.314 17.2349C583.479 17.3387 583.754 17.43 584.141 17.5088C584.528 17.584 584.854 17.6699 585.119 17.7666C585.939 18.0674 586.349 18.5884 586.349 19.3296C586.349 19.8595 586.121 20.2892 585.667 20.6187C585.212 20.9445 584.625 21.1074 583.905 21.1074C583.418 21.1074 582.985 21.0215 582.605 20.8496C582.229 20.6742 581.934 20.436 581.719 20.1353C581.504 19.8309 581.396 19.5033 581.396 19.1523H582.868C582.882 19.4281 582.985 19.6393 583.174 19.7861C583.364 19.9329 583.618 20.0063 583.937 20.0063C584.234 20.0063 584.458 19.9508 584.608 19.8398C584.762 19.7253 584.839 19.5767 584.839 19.394ZM588.991 21H587.434V15.1885H588.991V21ZM587.342 13.6846C587.342 13.4518 587.419 13.2603 587.573 13.1099C587.731 12.9595 587.944 12.8843 588.212 12.8843C588.477 12.8843 588.689 12.9595 588.846 13.1099C589.004 13.2603 589.083 13.4518 589.083 13.6846C589.083 13.9209 589.002 14.1143 588.841 14.2646C588.683 14.415 588.474 14.4902 588.212 14.4902C587.951 14.4902 587.74 14.415 587.579 14.2646C587.421 14.1143 587.342 13.9209 587.342 13.6846ZM592.95 21.1074C592.097 21.1074 591.403 20.846 590.866 20.3232C590.332 19.8005 590.065 19.104 590.065 18.2339V18.0835C590.065 17.4998 590.178 16.9788 590.404 16.5205C590.629 16.0586 590.948 15.7041 591.36 15.457C591.775 15.2064 592.248 15.0811 592.778 15.0811C593.573 15.0811 594.198 15.3317 594.652 15.833C595.111 16.3343 595.34 17.0451 595.34 17.9653V18.5991H591.639C591.689 18.9787 591.84 19.283 592.09 19.5122C592.345 19.7414 592.665 19.856 593.052 19.856C593.65 19.856 594.117 19.6393 594.454 19.2061L595.216 20.0601C594.984 20.3895 594.668 20.6473 594.271 20.8335C593.874 21.0161 593.433 21.1074 592.95 21.1074ZM592.772 16.3379C592.465 16.3379 592.214 16.4417 592.021 16.6494C591.831 16.8571 591.709 17.1543 591.655 17.541H593.814V17.4175C593.807 17.0737 593.714 16.8088 593.535 16.6226C593.356 16.4328 593.102 16.3379 592.772 16.3379ZM597.864 21H596.307V12.75H597.864V21ZM603.601 18.2446V21H601.989V13.1797H605.04C605.627 13.1797 606.143 13.2871 606.587 13.502C607.035 13.7168 607.378 14.0229 607.618 14.4204C607.858 14.8143 607.978 15.2637 607.978 15.7686C607.978 16.5348 607.715 17.14 607.188 17.584C606.666 18.0244 605.941 18.2446 605.013 18.2446H603.601ZM603.601 16.9395H605.04C605.466 16.9395 605.79 16.8392 606.012 16.6387C606.238 16.4382 606.351 16.1517 606.351 15.7793C606.351 15.3962 606.238 15.0864 606.012 14.8501C605.787 14.6138 605.475 14.492 605.078 14.4849H603.601V16.9395ZM612.291 21C612.219 20.8604 612.167 20.6867 612.135 20.479C611.759 20.8979 611.271 21.1074 610.669 21.1074C610.1 21.1074 609.627 20.9427 609.251 20.6133C608.879 20.2839 608.692 19.8685 608.692 19.3672C608.692 18.7513 608.92 18.2786 609.375 17.9492C609.833 17.6198 610.493 17.4533 611.356 17.4497H612.071V17.1167C612.071 16.8481 612.001 16.6333 611.861 16.4722C611.725 16.311 611.509 16.2305 611.211 16.2305C610.95 16.2305 610.744 16.2931 610.594 16.4185C610.447 16.5438 610.374 16.7157 610.374 16.9341H608.821C608.821 16.5975 608.925 16.286 609.133 15.9995C609.34 15.7131 609.634 15.4893 610.014 15.3281C610.393 15.1634 610.819 15.0811 611.292 15.0811C612.008 15.0811 612.576 15.2619 612.995 15.6235C613.417 15.9816 613.628 16.4865 613.628 17.1382V19.6572C613.632 20.2087 613.709 20.6258 613.859 20.9087V21H612.291ZM611.007 19.9204C611.236 19.9204 611.448 19.8703 611.641 19.77C611.834 19.6662 611.978 19.5283 612.071 19.3564V18.3574H611.491C610.714 18.3574 610.3 18.626 610.25 19.1631L610.245 19.2544C610.245 19.4478 610.313 19.6071 610.449 19.7324C610.585 19.8577 610.771 19.9204 611.007 19.9204ZM616.459 21H614.901V12.75H616.459V21ZM621.11 21C621.039 20.8604 620.987 20.6867 620.955 20.479C620.579 20.8979 620.09 21.1074 619.488 21.1074C618.919 21.1074 618.446 20.9427 618.07 20.6133C617.698 20.2839 617.512 19.8685 617.512 19.3672C617.512 18.7513 617.739 18.2786 618.194 17.9492C618.652 17.6198 619.313 17.4533 620.176 17.4497H620.89V17.1167C620.89 16.8481 620.82 16.6333 620.681 16.4722C620.545 16.311 620.328 16.2305 620.031 16.2305C619.769 16.2305 619.563 16.2931 619.413 16.4185C619.266 16.5438 619.193 16.7157 619.193 16.9341H617.641C617.641 16.5975 617.744 16.286 617.952 15.9995C618.16 15.7131 618.453 15.4893 618.833 15.3281C619.213 15.1634 619.639 15.0811 620.111 15.0811C620.827 15.0811 621.395 15.2619 621.814 15.6235C622.236 15.9816 622.448 16.4865 622.448 17.1382V19.6572C622.451 20.2087 622.528 20.6258 622.679 20.9087V21H621.11ZM619.827 19.9204C620.056 19.9204 620.267 19.8703 620.46 19.77C620.654 19.6662 620.797 19.5283 620.89 19.3564V18.3574H620.31C619.533 18.3574 619.119 18.626 619.069 19.1631L619.064 19.2544C619.064 19.4478 619.132 19.6071 619.268 19.7324C619.404 19.8577 619.59 19.9204 619.827 19.9204ZM626.057 19.856C626.344 19.856 626.576 19.7772 626.755 19.6196C626.934 19.4621 627.028 19.2526 627.035 18.9912H628.49C628.487 19.3851 628.379 19.7467 628.168 20.0762C627.957 20.402 627.667 20.6562 627.298 20.8389C626.933 21.0179 626.528 21.1074 626.084 21.1074C625.253 21.1074 624.598 20.8442 624.118 20.3179C623.638 19.7879 623.398 19.0575 623.398 18.1265V18.0244C623.398 17.1292 623.637 16.4149 624.113 15.8813C624.589 15.3478 625.243 15.0811 626.073 15.0811C626.8 15.0811 627.382 15.2887 627.819 15.7041C628.259 16.1159 628.483 16.6655 628.49 17.353H627.035C627.028 17.0522 626.934 16.8088 626.755 16.6226C626.576 16.4328 626.34 16.3379 626.046 16.3379C625.685 16.3379 625.411 16.4704 625.225 16.7354C625.042 16.9967 624.951 17.4229 624.951 18.0137V18.1748C624.951 18.7728 625.042 19.2025 625.225 19.4639C625.407 19.7253 625.685 19.856 626.057 19.856ZM631.015 21H629.457V15.1885H631.015V21ZM629.366 13.6846C629.366 13.4518 629.443 13.2603 629.597 13.1099C629.754 12.9595 629.967 12.8843 630.236 12.8843C630.501 12.8843 630.712 12.9595 630.87 13.1099C631.027 13.2603 631.106 13.4518 631.106 13.6846C631.106 13.9209 631.025 14.1143 630.864 14.2646C630.707 14.415 630.497 14.4902 630.236 14.4902C629.974 14.4902 629.763 14.415 629.602 14.2646C629.444 14.1143 629.366 13.9209 629.366 13.6846ZM632.057 18.0405C632.057 17.464 632.168 16.9502 632.39 16.499C632.612 16.0479 632.93 15.6987 633.346 15.4517C633.765 15.2046 634.25 15.0811 634.801 15.0811C635.585 15.0811 636.225 15.321 636.719 15.8008C637.216 16.2806 637.494 16.9323 637.551 17.7559L637.562 18.1533C637.562 19.0449 637.313 19.7611 636.815 20.3018C636.318 20.8389 635.65 21.1074 634.812 21.1074C633.974 21.1074 633.305 20.8389 632.803 20.3018C632.306 19.7646 632.057 19.0342 632.057 18.1104V18.0405ZM633.609 18.1533C633.609 18.7048 633.713 19.1273 633.92 19.4209C634.128 19.7109 634.425 19.856 634.812 19.856C635.188 19.856 635.482 19.7127 635.693 19.4263C635.904 19.1362 636.01 18.6743 636.01 18.0405C636.01 17.4998 635.904 17.0809 635.693 16.7837C635.482 16.4865 635.184 16.3379 634.801 16.3379C634.422 16.3379 634.128 16.4865 633.92 16.7837C633.713 17.0773 633.609 17.5339 633.609 18.1533ZM641.666 19.394C641.666 19.2043 641.571 19.0557 641.381 18.9482C641.195 18.8372 640.894 18.7388 640.479 18.6528C639.096 18.3628 638.405 17.7756 638.405 16.8911C638.405 16.3755 638.618 15.9458 639.044 15.6021C639.474 15.2547 640.035 15.0811 640.726 15.0811C641.463 15.0811 642.052 15.2547 642.493 15.6021C642.937 15.9494 643.159 16.4006 643.159 16.9556H641.606C641.606 16.7336 641.535 16.5509 641.392 16.4077C641.248 16.2609 641.025 16.1875 640.72 16.1875C640.459 16.1875 640.257 16.2466 640.113 16.3647C639.97 16.4829 639.898 16.6333 639.898 16.8159C639.898 16.9878 639.979 17.1274 640.14 17.2349C640.305 17.3387 640.581 17.43 640.967 17.5088C641.354 17.584 641.68 17.6699 641.945 17.7666C642.765 18.0674 643.175 18.5884 643.175 19.3296C643.175 19.8595 642.947 20.2892 642.493 20.6187C642.038 20.9445 641.451 21.1074 640.731 21.1074C640.244 21.1074 639.811 21.0215 639.431 20.8496C639.055 20.6742 638.76 20.436 638.545 20.1353C638.33 19.8309 638.223 19.5033 638.223 19.1523H639.694C639.709 19.4281 639.811 19.6393 640 19.7861C640.19 19.9329 640.444 20.0063 640.763 20.0063C641.06 20.0063 641.284 19.9508 641.435 19.8398C641.589 19.7253 641.666 19.5767 641.666 19.394Z" fill="white"/>
</g>
<defs>
<filter id="filter0_d" x="174.607" y="-217.663" width="606.918" height="513.792" filterUnits="userSpaceOnUse" color-interpolation-filters="sRGB">
<feFlood flood-opacity="0" result="BackgroundImageFix"/>
<feColorMatrix in="SourceAlpha" type="matrix" values="0 0 0 0 0 0 0 0 0 0 0 0 0 0 0 0 0 0 127 0" result="hardAlpha"/>
<feOffset/>
<feGaussianBlur stdDeviation="30.3029"/>
<feColorMatrix type="matrix" values="0 0 0 0 0.129427 0 0 0 0 0.224219 0 0 0 0 0.4375 0 0 0 0.3 0"/>
<feBlend mode="normal" in2="BackgroundImageFix" result="effect1_dropShadow"/>
<feBlend mode="normal" in="SourceGraphic" in2="effect1_dropShadow" result="shape"/>
</filter>
<filter id="filter1_d" x="181.125" y="-230.604" width="603.585" height="512.4" filterUnits="userSpaceOnUse" color-interpolation-filters="sRGB">
<feFlood flood-opacity="0" result="BackgroundImageFix"/>
<feColorMatrix in="SourceAlpha" type="matrix" values="0 0 0 0 0 0 0 0 0 0 0 0 0 0 0 0 0 0 127 0" result="hardAlpha"/>
<feOffset/>
<feGaussianBlur stdDeviation="30.3029"/>
<feColorMatrix type="matrix" values="0 0 0 0 0.129427 0 0 0 0 0.224219 0 0 0 0 0.4375 0 0 0 0.3 0"/>
<feBlend mode="normal" in2="BackgroundImageFix" result="effect1_dropShadow"/>
<feBlend mode="normal" in="SourceGraphic" in2="effect1_dropShadow" result="shape"/>
</filter>
<filter id="filter2_d" x="215.625" y="-202.984" width="551.889" height="465.044" filterUnits="userSpaceOnUse" color-interpolation-filters="sRGB">
<feFlood flood-opacity="0" result="BackgroundImageFix"/>
<feColorMatrix in="SourceAlpha" type="matrix" values="0 0 0 0 0 0 0 0 0 0 0 0 0 0 0 0 0 0 127 0" result="hardAlpha"/>
<feOffset/>
<feGaussianBlur stdDeviation="30.3029"/>
<feColorMatrix type="matrix" values="0 0 0 0 0.129427 0 0 0 0 0.224219 0 0 0 0 0.4375 0 0 0 0.3 0"/>
<feBlend mode="normal" in2="BackgroundImageFix" result="effect1_dropShadow"/>
<feBlend mode="normal" in="SourceGraphic" in2="effect1_dropShadow" result="shape"/>
</filter>
<filter id="filter3_d" x="174.41" y="-261.316" width="622.776" height="528.561" filterUnits="userSpaceOnUse" color-interpolation-filters="sRGB">
<feFlood flood-opacity="0" result="BackgroundImageFix"/>
<feColorMatrix in="SourceAlpha" type="matrix" values="0 0 0 0 0 0 0 0 0 0 0 0 0 0 0 0 0 0 127 0" result="hardAlpha"/>
<feOffset/>
<feGaussianBlur stdDeviation="30.3029"/>
<feColorMatrix type="matrix" values="0 0 0 0 0.129427 0 0 0 0 0.224219 0 0 0 0 0.4375 0 0 0 0.3 0"/>
<feBlend mode="normal" in2="BackgroundImageFix" result="effect1_dropShadow"/>
<feBlend mode="normal" in="SourceGraphic" in2="effect1_dropShadow" result="shape"/>
</filter>
<linearGradient id="paint0_linear" x1="158.139" y1="122.102" x2="525.761" y2="355.301" gradientUnits="userSpaceOnUse">
<stop stop-color="#E1467C"/>
<stop offset="1" stop-color="#FF9CE3"/>
</linearGradient>
<linearGradient id="paint1_linear" x1="693.716" y1="149.856" x2="275.075" y2="-82.1229" gradientUnits="userSpaceOnUse">
<stop stop-color="#E0695B"/>
<stop offset="1" stop-color="#3913B8"/>
</linearGradient>
<linearGradient id="paint2_linear" x1="694.077" y1="133.915" x2="284.154" y2="-93.2334" gradientUnits="userSpaceOnUse">
<stop stop-color="#FF5A3D"/>
<stop offset="1" stop-color="#2FB8FF"/>
</linearGradient>
<linearGradient id="paint3_linear" x1="681.782" y1="127.141" x2="311.869" y2="-77.8364" gradientUnits="userSpaceOnUse">
<stop stop-color="#FF5A3D"/>
<stop offset="1" stop-color="#2FB8FF"/>
</linearGradient>
<linearGradient id="paint4_linear" x1="703.973" y1="114.883" x2="280.432" y2="-119.812" gradientUnits="userSpaceOnUse">
<stop stop-color="#FF6C6C"/>
<stop offset="1" stop-color="#2FB8FF"/>
</linearGradient>
<clipPath id="clip0">
<rect width="701" height="428" fill="white"/>
</clipPath>
</defs>
</svg>
